<svg width="67" height="67" viewBox="0 0 67 67" fill="none" xmlns="http://www.w3.org/2000/svg">
<path d="M51.7575 11.6412L36.4033 5.8904C34.8121 5.30415 32.2158 5.30415 30.6246 5.8904L15.2704 11.6412C12.3113 12.7579 9.91043 16.2196 9.91043 19.3742V41.9867C9.91043 44.2479 11.39 47.235 13.2046 48.575L28.5588 60.0487C31.2667 62.0867 35.7054 62.0867 38.4133 60.0487L53.7675 48.575C55.5821 47.2071 57.0617 44.2479 57.0617 41.9867V19.3742C57.0896 16.2196 54.6888 12.7579 51.7575 11.6412ZM35.5938 35.9287V43.2708C35.5938 44.4154 34.6446 45.3646 33.5 45.3646C32.3554 45.3646 31.4063 44.4154 31.4063 43.2708V35.9287C28.5867 35.0354 26.5208 32.4112 26.5208 29.3125C26.5208 25.46 29.6475 22.3333 33.5 22.3333C37.3525 22.3333 40.4792 25.46 40.4792 29.3125C40.4792 32.4392 38.4133 35.0354 35.5938 35.9287Z" fill="#EDA415"/>
</svg>
